<?xml version="1.0" encoding="UTF-8" standalone="no"?>
<!-- Created with Inkscape (http://www.inkscape.org/) -->

<svg
   version="1.1"
   id="svg1"
   width="2677.3872"
   height="4233.083"
   viewBox="0 0 2677.3872 4233.083"
   sodipodi:docname="logo-chia.ai"
   xmlns:inkscape="http://www.inkscape.org/namespaces/inkscape"
   xmlns:sodipodi="http://sodipodi.sourceforge.net/DTD/sodipodi-0.dtd"
   xmlns="http://www.w3.org/2000/svg"
   xmlns:svg="http://www.w3.org/2000/svg">
  <defs
     id="defs1" />
  <sodipodi:namedview
     id="namedview1"
     pagecolor="#ffffff"
     bordercolor="#000000"
     borderopacity="0.25"
     inkscape:showpageshadow="2"
     inkscape:pageopacity="0.0"
     inkscape:pagecheckerboard="0"
     inkscape:deskcolor="#d1d1d1">
    <inkscape:page
       x="-240.7704"
       y="-74.779747"
       inkscape:label="1"
       id="page1"
       width="3264"
       height="4352"
       margin="44.136932 346.22665 74.773331 240.77066"
       bleed="0" />
  </sodipodi:namedview>
  <g
     id="layer-MC0"
     inkscape:groupmode="layer"
     inkscape:label="Layer 1"
     style="display:none"
     transform="translate(-240.7704,-74.779747)" />
  <g
     id="layer-MC1"
     inkscape:groupmode="layer"
     inkscape:label="Layer 3"
     transform="translate(-240.7704,-74.779747)" />
  <g
     id="layer-MC2"
     inkscape:groupmode="layer"
     inkscape:label="Layer 2"
     transform="translate(-240.7704,-74.779747)">
    <path
       id="path1"
       d="m 0,0 c -0.179,-0.784 -0.346,-1.546 -0.514,-2.307 9.369,10.133 18.874,20.928 28.565,32.43 0.227,0.719 0.451,1.434 0.683,2.161 78.395,90.9 148.539,194.901 203.969,280.771 26.758,41.455 43.978,76.403 51.18,103.877 8.76,33.413 0.218,47.407 -8.49,53.263 -18.289,12.298 -48.049,-3.376 -72.376,-38.117 C 161.308,372.511 104.923,267.05 59.372,163.403 45.338,131.471 33.189,101.586 23.375,74.933 c 13.391,15.932 26.977,33.12 40.876,51.689 3.156,7.523 6.428,15.189 9.833,23.008 44.907,103.125 102.977,212.252 144.498,271.55 17.292,24.696 34.465,34.123 42.696,34.123 1.473,0 2.662,-0.303 3.512,-0.874 2.93,-1.971 6.378,-11.072 0.714,-32.679 -4.6,-17.549 -16.795,-48.863 -48.764,-98.391 C 169.515,250.198 111.557,163.807 47.049,83.914 c 0.229,0.595 0.469,1.206 0.7,1.804 C 35.906,70.968 24.234,57.176 12.655,44.273 12.383,43.447 12.1,42.604 11.834,41.786 -8.646,18.168 -29.67,-4.501 -51.124,-25.658 c -51.605,-50.894 -102.808,-90.097 -152.186,-116.522 -54.631,-29.235 -109.283,-44.058 -162.437,-44.058 -39.216,0 -72.023,5.959 -97.508,17.711 -23.613,10.888 -40.958,26.808 -51.553,47.316 -31.951,61.845 -3.104,163.806 79.147,279.737 58.514,82.474 128.836,149.287 203.366,193.217 13.105,7.725 25.726,14.413 37.816,20.201 0.199,-0.08 0.399,-0.158 0.598,-0.238 8.172,3.899 16.344,7.515 24.501,10.839 -0.207,0.079 -0.414,0.157 -0.621,0.236 52.633,21.388 92.883,25.321 115.321,25.321 21.111,0 33.133,-5.07 39.502,-9.322 6.742,-4.503 10.455,-10.331 10.455,-16.411 0,-13.929 -18.723,-28.732 -53.423,-28.732 -23.271,0 -57.648,9.443 -94.297,22.623 -8.634,-3.202 -17.296,-6.735 -25.969,-10.613 45.509,-17.433 90.502,-31.01 120.266,-31.01 47.547,0 72.423,24.012 72.423,47.732 0,12.448 -6.89,24.189 -18.904,32.212 -12.267,8.19 -29.575,12.521 -50.053,12.521 -42.615,0 -91.142,-12.04 -140.239,-34.432 -0.308,0.126 -0.614,0.253 -0.921,0.379 -7.68,-3.41 -15.368,-7.085 -23.052,-11.029 0.384,-0.162 0.767,-0.325 1.151,-0.488 -8.081,-4.203 -16.158,-8.679 -24.202,-13.421 -76.818,-45.278 -149.163,-113.95 -209.214,-198.59 -42.461,-59.849 -71.207,-116.113 -85.44,-167.23 -14.734,-52.914 -13.082,-97.4 4.909,-132.224 12.584,-24.355 32.931,-43.146 60.476,-55.848 27.999,-12.91 63.482,-19.457 105.465,-19.457 56.315,0 113.983,15.58 171.402,46.306 50.985,27.285 103.66,67.573 156.563,119.745 C -25.022,-26.603 -12.426,-13.507 0,0"
       style="fill:#ffffff;fill-opacity:1;fill-rule:nonzero;stroke:none"
       transform="matrix(1.3333333,0,0,-1.3333333,1176.4708,4034.2121)" />
    <path
       id="path2"
       d="m 0,0 c -23.753,45.197 -80.714,99.075 -217.182,99.075 -65.552,0 -126.873,-10.68 -182.258,-31.746 -44.413,-16.891 -85.108,-40.451 -120.954,-70.026 -61.2,-50.491 -86.814,-100.55 -87.874,-102.656 -2.358,-4.682 -0.474,-10.384 4.206,-12.748 4.682,-2.362 10.392,-0.483 12.759,4.195 0.246,0.485 25.292,49.17 83.717,97.144 34.23,28.107 73.084,50.498 115.484,66.554 53.065,20.095 111.917,30.283 174.92,30.283 100.509,0 169.793,-30.746 200.364,-88.914 17.48,-33.263 18.384,-67.708 16.065,-90.746 -2.833,-28.141 -11.952,-55.162 -25.018,-74.136 -6.753,-9.807 -31.784,-44.081 -70.337,-73.352 -37.288,-28.312 -74.486,-42.666 -110.558,-42.666 -12.482,0 -23.287,1.866 -32.347,5.566 -3.469,-5.521 -6.62,-10.154 -10.878,-16.018 12.105,-5.684 26.552,-8.548 43.225,-8.548 40.317,0 81.379,15.656 122.047,46.533 39.694,30.138 65.321,64.385 74.497,77.71 C 19.32,-141.741 32.873,-62.55 0,0"
       style="fill:#ffffff;fill-opacity:1;fill-rule:nonzero;stroke:none"
       transform="matrix(1.3333333,0,0,-1.3333333,2800.5345,3309.9791)" />
    <path
       id="path3"
       d="m 0,0 c 4.019,-2.099 52.183,-27.137 109.971,-52.327 7.38,3.976 14.77,7.726 22.16,11.227 C 67.298,-13.576 9.862,16.285 8.796,16.842 4.145,19.271 -1.595,17.47 -4.022,12.818 -6.452,8.168 -4.651,2.43 0,0"
       style="fill:#ffffff;fill-opacity:1;fill-rule:nonzero;stroke:none"
       transform="matrix(1.3333333,0,0,-1.3333333,719.08093,3446.9529)" />
    <path
       id="path4"
       d="m 0,0 c 4.261,5.843 7.39,10.4 10.747,15.705 -0.284,0.198 -0.578,0.387 -0.857,0.591 31.161,47.961 52.199,101.056 52.199,133.17 0,30.811 -19.76,33.206 -25.815,33.206 -16.874,0 -34.406,-13.982 -48.099,-38.36 -12.685,-22.58 -19.959,-49.841 -19.959,-74.792 0,-16.615 3.279,-31.491 9.577,-43.881 4.335,6.295 8.555,12.85 12.635,19.607 -2.488,8.595 -3.212,17.208 -3.212,24.274 0,21.472 6.551,45.952 17.524,65.486 9.932,17.682 22.015,28.666 31.534,28.666 2.039,0 6.815,0 6.815,-14.206 0,-27.461 -18.962,-75.158 -46.468,-118.654 -0.168,0.28 -0.318,0.566 -0.481,0.848 -3.712,-5.865 -7.53,-11.551 -11.426,-17.046 0.195,-0.255 0.379,-0.521 0.577,-0.773 -0.015,-0.02 -0.028,-0.04 -0.043,-0.06 -40.017,-56.734 -84.83,-89.274 -122.948,-89.274 -25.971,0 -43.424,8.232 -51.875,24.468 -13.356,25.655 -2.911,70.621 25.988,111.894 39.786,56.821 96.879,80.55 121.258,90.682 3.468,1.442 6.206,2.579 8.213,3.542 6.223,2.987 8.854,7.128 7.82,12.309 -1.683,8.438 -10.437,8.438 -15.667,8.438 -49.26,0 -95.196,-20.904 -140.434,-63.907 -38.575,-36.669 -71.53,-84.582 -100.605,-126.854 -41.376,-60.156 -77.109,-112.109 -112.844,-112.109 -17.977,0 -29.734,4.66 -35.943,14.245 -19.541,30.168 14.557,106.264 34.929,151.729 17.426,38.889 22.669,51.604 17.049,60.283 -2.23,3.441 -5.943,5.414 -10.188,5.414 -12.089,0 -24.714,-17 -78.237,-96.233 -29.962,-44.355 -67.252,-99.556 -101.62,-142.155 -47.275,-58.597 -70.856,-70.897 -82.313,-70.897 -9.707,0 -11.838,3.28 -12.538,4.358 -2.462,3.79 -3.942,12.959 2.983,35.122 5.667,18.138 15.478,40.187 24.965,61.511 21.554,48.441 41.911,94.195 26.852,117.378 -5.85,9.006 -15.907,13.572 -29.894,13.572 -39.939,0 -80.824,-24.707 -124.99,-75.53 -36.958,-42.531 -70.205,-96.111 -99.538,-143.385 -17.584,-28.338 -34.194,-55.107 -48.323,-73.858 -18.297,-24.284 -26.548,-27.086 -29.301,-27.13 -0.881,1.545 -4.49,10.69 4.451,46.278 -8.209,-9.245 -16.309,-18 -24.331,-26.289 -1.727,-16.255 0.516,-23.95 2.953,-28.631 3.478,-6.68 9.465,-10.359 16.859,-10.359 24.46,0 48.998,37.709 93.837,109.972 28.956,46.666 61.775,99.558 97.735,140.939 40.343,46.425 76.536,68.993 110.648,68.993 10.764,0 13.17,-3.705 13.96,-4.921 2.618,-4.031 4.247,-13.64 -2.855,-36.536 -5.778,-18.62 -15.764,-41.064 -25.421,-62.769 -22.039,-49.532 -41.072,-92.309 -26.524,-114.706 5.607,-8.632 15.186,-13.009 28.472,-13.009 23.332,0 54.186,24.774 97.1,77.967 34.874,43.226 72.414,98.798 102.578,143.45 16.373,24.238 30.514,45.171 42.162,61.23 1.409,1.943 2.735,3.748 3.982,5.423 -2.55,-5.88 -5.302,-12.022 -7.852,-17.712 -24.77,-55.281 -58.693,-130.989 -33.537,-169.828 9.849,-15.206 27.307,-22.916 51.89,-22.916 45.727,0 84.084,55.768 128.498,120.342 28.549,41.506 60.906,88.549 98.041,123.85 24.567,23.352 49.175,39.608 74.316,48.992 -26.965,-15.574 -58.985,-39.434 -84.16,-75.387 -15.734,-22.47 -26.787,-46.303 -31.967,-68.923 -5.58,-24.368 -3.959,-46.029 4.689,-62.642 8.24,-15.827 26.852,-34.695 68.729,-34.695 24.342,0 49.745,9.961 75.506,29.606 20.941,15.971 42.118,38.565 61.361,65.455 C -0.56,0.373 -0.276,0.192 0,0"
       style="fill:#ffffff;fill-opacity:1;fill-rule:nonzero;stroke:none"
       transform="matrix(1.3333333,0,0,-1.3333333,2453.4017,3702.1908)" />
    <path
       id="path5"
       d="m 0,0 c -10.187,-12.282 -42.246,-29.75 -48.227,-38.293 -8.639,-12.337 -5.641,-29.342 6.697,-37.981 12.337,-8.638 29.342,-5.64 37.981,6.697 5.981,8.543 8.794,44.681 18.477,58.262 z"
       style="fill:#ffffff;fill-opacity:1;fill-rule:nonzero;stroke:none"
       transform="matrix(1.3333333,0,0,-1.3333333,2019.6735,3405.1385)" />
    <path
       id="path6"
       d="m 0,0 c 9.737,27.019 -11.643,55.062 -40.277,52.843 -59.019,-4.573 -43.342,36.503 -161.04,-10.524 -46.482,-18.572 -152.973,-136.05 -123.61,-176.588 29.363,-40.537 191.118,-7.294 237.6,11.278 59.756,23.876 72.299,76.398 87.125,122.429 z"
       style="fill:#ffffff;fill-opacity:1;fill-rule:nonzero;stroke:none"
       transform="matrix(1.3333333,0,0,-1.3333333,717.85293,3476.8924)" />
    <path
       id="path7"
       d="M 0,0 C -19.246,-16.017 -48.587,-6.839 -55.287,17.287 -69.096,67.014 -98.094,41.947 -94.568,152.391 -93.176,196.007 -28.58,318.224 13.375,306.22 55.331,294.216 76.206,151.769 74.813,108.152 73.023,52.08 33.713,26.176 0.4,0.333 Z"
       style="fill:#ffffff;fill-opacity:1;fill-rule:nonzero;stroke:none"
       transform="matrix(1.3333333,0,0,-1.3333333,753.87067,3421.4828)" />
  </g>
  <g
     id="layer-MC3"
     inkscape:groupmode="layer"
     inkscape:label="Layer 5"
     transform="translate(-240.7704,-74.779747)" />
  <g
     id="layer-MC4"
     inkscape:groupmode="layer"
     inkscape:label="Layer 6"
     transform="translate(-240.7704,-74.779747)">
    <path
       id="path8"
       d="m 0,0 c 43.036,-16.476 84.896,-29.145 111.856,-29.145 34.7,0 53.423,14.804 53.423,28.733 0,6.08 -3.714,11.908 -10.456,16.411 -6.368,4.252 -18.391,9.321 -39.502,9.321 C 92.884,25.32 52.634,21.388 0,0 m 1163.973,29.906 c -9.518,0 -21.601,-10.983 -31.533,-28.665 -10.974,-19.534 -17.524,-44.014 -17.524,-65.486 0,-11.107 1.769,-26.033 9.405,-38.708 27.506,43.496 46.468,91.192 46.468,118.654 0,14.205 -4.777,14.205 -6.816,14.205 M 431.279,72.521 c -8.231,0 -25.404,-9.426 -42.696,-34.123 -41.521,-59.297 -99.59,-168.424 -144.497,-271.549 -10.144,-23.293 -19.212,-45.349 -27.035,-65.716 64.507,79.892 122.465,166.284 169.69,239.445 31.969,49.527 44.164,80.842 48.764,98.391 5.665,21.607 2.217,30.708 -0.714,32.678 -0.85,0.572 -2.038,0.874 -3.512,0.874 M -195.746,-588.02 c -41.983,0 -77.466,6.547 -105.464,19.458 -27.546,12.702 -47.893,31.493 -60.476,55.848 -17.991,34.823 -19.643,79.31 -4.91,132.224 14.234,51.117 42.98,107.381 85.441,167.229 60.051,84.641 132.395,153.313 209.213,198.591 8.044,4.741 16.121,9.218 24.202,13.421 -64.374,27.228 -120.931,56.63 -125.301,58.912 -4.651,2.43 -6.452,8.168 -4.022,12.818 2.427,4.652 8.167,6.453 12.818,4.024 1.153,-0.603 68.25,-35.486 139.327,-64.616 49.097,22.392 97.625,34.431 140.239,34.431 20.479,0 37.787,-4.33 50.054,-12.52 12.014,-8.024 18.904,-19.764 18.904,-32.212 0,-23.72 -24.877,-47.733 -72.423,-47.733 -33.268,0 -85.559,16.958 -136.334,37.308 -12.089,-5.788 -24.71,-12.476 -37.816,-20.201 -74.529,-43.93 -144.852,-110.743 -203.365,-193.217 -82.251,-115.932 -111.099,-217.892 -79.148,-279.737 10.596,-20.508 27.941,-36.428 51.553,-47.317 25.486,-11.752 58.292,-17.711 97.508,-17.711 53.154,0 107.806,14.824 162.437,44.059 49.379,26.425 100.582,65.628 152.187,116.522 21.453,21.157 42.477,43.826 62.957,67.444 11.037,33.93 27.341,75.662 47.538,121.617 45.552,103.647 101.936,209.107 143.646,268.675 24.326,34.741 54.086,50.415 72.375,38.117 8.708,-5.856 17.25,-19.851 8.49,-53.264 -7.202,-27.473 -24.422,-62.421 -51.18,-103.877 -55.429,-85.87 -125.574,-189.871 -203.969,-280.77 -1.588,-4.977 -3.054,-9.771 -4.394,-14.37 -14.081,-48.338 -9.59,-59.758 -8.595,-61.504 2.754,0.044 11.004,2.846 29.302,27.13 14.129,18.751 30.738,45.519 48.323,73.858 29.332,47.274 62.579,100.854 99.538,143.385 44.166,50.823 85.05,75.529 124.99,75.529 13.986,0 24.044,-4.565 29.893,-13.571 15.06,-23.184 -5.297,-68.938 -26.851,-117.378 -9.487,-21.324 -19.298,-43.373 -24.966,-61.512 -6.925,-22.162 -5.444,-31.332 -2.982,-35.121 0.7,-1.078 2.831,-4.358 12.538,-4.358 11.457,0 35.038,12.3 82.312,70.896 34.368,42.6 71.658,97.801 101.62,142.156 53.524,79.233 66.149,96.233 78.238,96.233 4.245,0 7.958,-1.974 10.187,-5.414 5.62,-8.679 0.377,-21.395 -17.049,-60.283 -20.372,-45.465 -54.469,-121.561 -34.928,-151.729 6.209,-9.586 17.965,-14.245 35.943,-14.245 35.734,0 71.468,51.953 112.844,112.108 29.075,42.273 62.03,90.186 100.604,126.855 45.239,43.003 91.175,63.907 140.435,63.907 5.229,0 13.983,0 15.667,-8.438 1.034,-5.181 -1.598,-9.323 -7.821,-12.309 -2.006,-0.963 -4.745,-2.1 -8.212,-3.542 -24.379,-10.133 -81.472,-33.861 -121.258,-90.682 -28.9,-41.273 -39.344,-86.24 -25.988,-111.894 8.451,-16.236 25.904,-24.468 51.875,-24.468 38.118,0 82.93,32.539 122.948,89.274 0.014,0.02 0.028,0.04 0.043,0.06 -11.183,14.223 -17.075,33.389 -17.075,55.679 0,24.951 7.274,52.212 19.959,74.792 13.693,24.378 31.224,38.359 48.098,38.359 6.056,0 25.816,-2.394 25.816,-33.205 0,-32.114 -21.039,-85.209 -52.2,-133.171 10.862,-7.888 25.536,-11.876 43.794,-11.876 36.073,0 73.27,14.355 110.558,42.666 38.554,29.272 63.584,63.545 70.338,73.353 13.065,18.973 22.185,45.995 25.018,74.136 2.319,23.038 1.415,57.483 -16.066,90.746 -30.57,58.168 -99.855,88.914 -200.364,88.914 -63.003,0 -121.855,-10.189 -174.92,-30.283 -42.4,-16.056 -81.254,-38.448 -115.484,-66.554 -58.424,-47.975 -83.47,-96.659 -83.716,-97.145 -2.368,-4.677 -8.078,-6.556 -12.76,-4.194 -4.68,2.363 -6.564,8.065 -4.206,12.748 1.06,2.105 26.675,52.165 87.874,102.655 35.846,29.575 76.541,53.136 120.954,70.027 55.386,21.065 116.706,31.746 182.258,31.746 136.469,0 193.43,-53.878 217.182,-99.075 32.873,-62.55 19.321,-141.742 -10.122,-184.497 -9.175,-13.325 -34.802,-47.572 -74.497,-77.71 -40.668,-30.876 -81.73,-46.533 -122.047,-46.533 -22.216,0 -40.48,5.085 -54.516,15.149 -19.243,-26.89 -40.42,-49.485 -61.362,-65.455 -25.76,-19.645 -51.164,-29.606 -75.505,-29.606 -41.877,0 -60.49,18.867 -68.729,34.695 -8.648,16.613 -10.27,38.274 -4.689,62.642 5.179,22.62 16.233,46.453 31.966,68.923 25.175,35.953 57.196,59.812 84.16,75.387 -25.14,-9.384 -49.749,-25.64 -74.315,-48.993 -37.136,-35.3 -69.492,-82.343 -98.041,-123.849 -44.414,-64.574 -82.771,-120.342 -128.498,-120.342 -24.583,0 -42.041,7.71 -51.891,22.916 -25.156,38.839 8.768,114.547 33.537,169.827 2.55,5.691 5.302,11.832 7.853,17.713 -1.247,-1.676 -2.573,-3.48 -3.982,-5.424 -11.649,-16.058 -25.789,-36.991 -42.163,-61.229 -30.164,-44.653 -67.704,-100.224 -102.578,-143.45 -42.914,-53.193 -73.767,-77.967 -97.099,-77.967 -13.286,0 -22.865,4.377 -28.472,13.009 -14.549,22.397 4.484,65.173 26.524,114.706 9.657,21.705 19.643,44.149 25.42,62.769 7.103,22.896 5.474,32.505 2.856,36.535 -0.79,1.217 -3.196,4.921 -13.96,4.921 -34.112,0 -70.306,-22.567 -110.649,-68.992 -35.959,-41.381 -68.779,-94.273 -97.735,-140.939 -44.839,-72.263 -69.376,-109.972 -93.837,-109.972 -7.394,0 -13.381,3.679 -16.858,10.358 -3.4,6.531 -6.424,18.918 1.181,52.233 -12.425,-13.507 -25.022,-26.603 -37.782,-39.187 -52.902,-52.173 -105.577,-92.461 -156.563,-119.745 -57.419,-30.726 -115.086,-46.307 -171.402,-46.307"
       style="fill:#ffffff;fill-opacity:1;fill-rule:nonzero;stroke:none"
       transform="matrix(1.3333333,0,0,-1.3333333,1029.8364,586.528)" />
    <path
       id="path9"
       d="m 0,0 c -10.187,-12.282 -42.246,-29.75 -48.227,-38.292 -8.639,-12.338 -5.641,-29.343 6.697,-37.982 12.337,-8.638 29.342,-5.64 37.981,6.697 5.981,8.543 8.794,44.681 18.477,58.262 z"
       style="fill:#ffffff;fill-opacity:1;fill-rule:nonzero;stroke:none"
       transform="matrix(1.3333333,0,0,-1.3333333,2099.7079,467.82947)" />
    <path
       id="path10"
       d="M 0,0 C 9.737,27.02 -11.643,55.062 -40.277,52.843 -99.296,48.27 -83.619,89.346 -201.317,42.32 -247.799,23.748 -354.29,-93.731 -324.927,-134.269 c 29.363,-40.537 191.118,-7.294 237.6,11.278 59.756,23.876 72.299,76.398 87.125,122.429 z"
       style="fill:#ffffff;fill-opacity:1;fill-rule:nonzero;stroke:none"
       transform="matrix(1.3333333,0,0,-1.3333333,797.88707,539.58333)" />
    <path
       id="path11"
       d="M 0,0 C -19.246,-16.017 -48.587,-6.839 -55.287,17.287 -69.096,67.014 -98.094,41.947 -94.568,152.39 -93.176,196.007 -28.58,318.224 13.375,306.22 55.331,294.216 76.206,151.769 74.813,108.152 73.023,52.08 33.713,26.176 0.4,0.333 Z"
       style="fill:#ffffff;fill-opacity:1;fill-rule:nonzero;stroke:none"
       transform="matrix(1.3333333,0,0,-1.3333333,833.9048,484.17347)" />
    <path
       id="path12"
       d="M 0,0 C -31.158,-9.463 -64.535,-24.046 -98.34,-43.971"
       style="fill:none;stroke:#ffffff;stroke-width:12;stroke-linecap:round;stroke-linejoin:miter;stroke-miterlimit:10;stroke-dasharray:none;stroke-opacity:1"
       transform="matrix(1.3333333,0,0,-1.3333333,1080.7627,577.48573)" />
    <path
       id="path13"
       d="M 0,0 C 48.435,49.509 94.56,106.781 138.37,167.465"
       style="fill:none;stroke:#ffffff;stroke-width:12;stroke-linecap:round;stroke-linejoin:miter;stroke-miterlimit:10;stroke-dasharray:none;stroke-opacity:1"
       transform="matrix(1.3333333,0,0,-1.3333333,1209.2225,1095.5628)" />
    <path
       id="path14"
       d="M 0,0 C 25.103,25.634 47.028,59.171 63.432,92.402"
       style="fill:none;stroke:#ffffff;stroke-width:12;stroke-linecap:round;stroke-linejoin:miter;stroke-miterlimit:10;stroke-dasharray:none;stroke-opacity:1"
       transform="matrix(1.3333333,0,0,-1.3333333,2465.8095,790.12693)" />
    <path
       id="path15"
       d="M 0,0 C -30.951,-10.117 -64.014,-25.401 -97.391,-46.034"
       style="fill:none;stroke:#ffffff;stroke-width:12;stroke-linecap:round;stroke-linejoin:miter;stroke-miterlimit:10;stroke-dasharray:none;stroke-opacity:1"
       transform="matrix(1.3333333,0,0,-1.3333333,1044.1136,545.46293)" />
    <path
       id="path16"
       d="M 0,0 C 48.973,48.977 95.719,105.744 140.189,165.945"
       style="fill:none;stroke:#ffffff;stroke-width:12;stroke-linecap:round;stroke-linejoin:miter;stroke-miterlimit:10;stroke-dasharray:none;stroke-opacity:1"
       transform="matrix(1.3333333,0,0,-1.3333333,1213.3433,1155.902)" />
    <path
       id="path17"
       d="M 0,0 C 24.096,26.583 44.71,60.941 59.82,94.78"
       style="fill:none;stroke:#ffffff;stroke-width:12;stroke-linecap:round;stroke-linejoin:miter;stroke-miterlimit:10;stroke-dasharray:none;stroke-opacity:1"
       transform="matrix(1.3333333,0,0,-1.3333333,2509.172,808.48053)" />
    <path
       id="path18"
       d="m 0,0 c 0,0 200.517,-104.728 280.499,-104.728 80.548,0 85.971,73.465 3.465,73.465 -98.96,0 -257.967,-69.273 -388.728,-253.579 -139.435,-196.532 -130.53,-359.762 77.662,-359.762 230.706,0 429.255,264.194 590.468,513.946 102.022,158.053 34.941,178.205 -13.922,108.422 -93.121,-132.991 -248.582,-479.72 -195.123,-479.72 52.843,0 166.726,319.903 302.221,319.903 92.505,0 -101.495,-231.94 -12.368,-231.94 70.573,0 239.539,309.285 262.17,309.285 25.703,0 -135.928,-231.671 -5.846,-231.671 96.549,0 172.549,302.871 353.882,302.871 32.728,0 -68.59,-13.169 -129.406,-100.023 -47.918,-68.434 -50.853,-151.311 33.668,-151.311 116.66,0 234.226,258.165 173.974,258.165 -50.673,0 -109.008,-178.253 17.41,-178.253 86.914,0 160.32,78.889 188.72,120.131 48.302,70.143 60.798,268.684 -199.236,268.684 -282.309,0 -382.601,-199.201 -382.601,-199.201"
       style="fill:none;stroke:#000000;stroke-width:27;stroke-linecap:round;stroke-linejoin:miter;stroke-miterlimit:10;stroke-dasharray:none;stroke-opacity:1"
       transform="matrix(1.3333333,0,0,-1.3333333,811.27893,1958.0824)" />
    <path
       id="path19"
       d="m 0,0 c -10.187,-12.282 -42.246,-29.75 -48.227,-38.293 -8.639,-12.337 -5.641,-29.342 6.697,-37.981 12.337,-8.638 29.342,-5.64 37.981,6.697 5.981,8.543 8.794,44.681 18.477,58.262 z"
       style="fill:#ffffff;fill-opacity:1;fill-rule:nonzero;stroke:none"
       transform="matrix(1.3333333,0,0,-1.3333333,2106.0079,1927.4957)" />
    <path
       id="path20"
       d="M 0,0 C -31.158,-9.463 -64.535,-24.046 -98.34,-43.971"
       style="fill:none;stroke:#ffffff;stroke-width:12;stroke-linecap:round;stroke-linejoin:miter;stroke-miterlimit:10;stroke-dasharray:none;stroke-opacity:1"
       transform="matrix(1.3333333,0,0,-1.3333333,1087.4293,2044.1524)" />
    <path
       id="path21"
       d="M 0,0 C 48.435,49.509 94.56,106.782 138.37,167.465"
       style="fill:none;stroke:#ffffff;stroke-width:12;stroke-linecap:round;stroke-linejoin:miter;stroke-miterlimit:10;stroke-dasharray:none;stroke-opacity:1"
       transform="matrix(1.3333333,0,0,-1.3333333,1209.2225,2552.8963)" />
    <path
       id="path22"
       d="M 0,0 C 25.103,25.634 47.028,59.171 63.432,92.402"
       style="fill:none;stroke:#ffffff;stroke-width:12;stroke-linecap:round;stroke-linejoin:miter;stroke-miterlimit:10;stroke-dasharray:none;stroke-opacity:1"
       transform="matrix(1.3333333,0,0,-1.3333333,2465.8095,2247.4603)" />
    <path
       id="path23"
       d="M 0,0 C -30.951,-10.117 -64.014,-25.401 -97.391,-46.034"
       style="fill:none;stroke:#ffffff;stroke-width:12;stroke-linecap:round;stroke-linejoin:miter;stroke-miterlimit:10;stroke-dasharray:none;stroke-opacity:1"
       transform="matrix(1.3333333,0,0,-1.3333333,1048.1136,1998.7963)" />
    <path
       id="path24"
       d="M 0,0 C 48.973,48.977 95.719,105.744 140.189,165.945"
       style="fill:none;stroke:#ffffff;stroke-width:12;stroke-linecap:round;stroke-linejoin:miter;stroke-miterlimit:10;stroke-dasharray:none;stroke-opacity:1"
       transform="matrix(1.3333333,0,0,-1.3333333,1220.01,2625.2355)" />
    <path
       id="path25"
       d="M 0,0 C 24.096,26.583 44.71,60.941 59.82,94.78"
       style="fill:none;stroke:#ffffff;stroke-width:12;stroke-linecap:round;stroke-linejoin:miter;stroke-miterlimit:10;stroke-dasharray:none;stroke-opacity:1"
       transform="matrix(1.3333333,0,0,-1.3333333,2519.8387,2272.4807)" />
    <path
       id="path26"
       d="m 0,0 c 27.648,-79.902 17.674,-155.881 -22.277,-169.705 -39.951,-13.824 -94.75,39.743 -122.398,119.644 -27.647,79.902 -17.674,155.882 22.277,169.705 C -82.447,133.468 -27.648,79.901 0,0"
       style="fill:#ffffff;fill-opacity:1;fill-rule:nonzero;stroke:none"
       transform="matrix(1.3333333,0,0,-1.3333333,823.45827,1731.8903)" />
    <path
       id="path27"
       d="m 0,0 c -81.401,-22.858 -156.655,-8.395 -168.084,32.306 -11.429,40.7 45.294,92.225 126.695,115.084 81.401,22.858 156.655,8.394 168.084,-32.306 C 138.125,74.383 81.401,22.859 0,0"
       style="fill:#ffffff;fill-opacity:1;fill-rule:nonzero;stroke:none"
       transform="matrix(1.3333333,0,0,-1.3333333,633.54587,2104.0277)" />
  </g>
  <g
     id="layer-MC5"
     inkscape:groupmode="layer"
     inkscape:label="Layer 7"
     transform="translate(-240.7704,-74.779747)" />
  <g
     id="layer-MC6"
     inkscape:groupmode="layer"
     inkscape:label="Layer 4"
     style="display:none"
     transform="translate(-240.7704,-74.779747)">
    <path
       id="path28"
       d="M 0,0 C 12.507,18.495 11.5,33.5 34.887,52.462 64.619,76.569 40.5,97 13.823,79.101 3.435,72.131 -21.513,58.47 -40.858,46.018 -80.5,20.5 -87,-26.5 -46.5,-26.5 c 21,0 36.201,11.27 46.5,26.5"
       style="fill:#ffffff;fill-opacity:1;fill-rule:nonzero;stroke:none"
       transform="matrix(1.3333333,0,0,-1.3333333,2177.3333,2283.3333)" />
    <path
       id="path29"
       d="m 0,0 c 0.482,54.066 0.3,101.808 -29.888,101.808 -31.782,0 -25.798,-35.281 -8.841,-70.172 -52.994,38.613 -96.538,50.065 -96.538,10.639 0,-46.405 66.654,-35.317 116.665,-44.799 z"
       style="fill:#ffffff;fill-opacity:1;fill-rule:nonzero;stroke:none"
       transform="matrix(1.3333333,0,0,-1.3333333,421.1264,2504.0684)" />
  </g>
</svg>
